<?xml version="1.0" standalone="no"?>
<!DOCTYPE svg PUBLIC "-//W3C//DTD SVG 20010904//EN"
 "http://www.w3.org/TR/2001/REC-SVG-20010904/DTD/svg10.dtd">
<svg version="1.0" xmlns="http://www.w3.org/2000/svg"
 width="700.000000pt" height="700.000000pt" viewBox="0 0 700.000000 700.000000"
 preserveAspectRatio="xMidYMid meet">
<metadata>
Created by potrace 1.11, written by Peter Selinger 2001-2013
</metadata>
<g transform="translate(0.000000,700.000000) scale(0.100000,-0.100000)"
fill="#000000" stroke="none">
<path d="M2678 6027 c-225 -231 -434 -446 -593 -608 l-144 -146 316 -309 c174
-170 400 -391 502 -491 102 -99 234 -228 292 -285 527 -511 737 -721 733 -731
-3 -7 -24 -27 -47 -45 -23 -19 -60 -50 -82 -70 -22 -21 -74 -66 -115 -102 -41
-36 -82 -72 -90 -80 -8 -8 -44 -40 -80 -70 -35 -30 -72 -62 -80 -70 -24 -22
-84 -76 -175 -155 -44 -38 -85 -74 -91 -80 -6 -5 -41 -37 -79 -70 -37 -33 -73
-65 -79 -70 -6 -6 -83 -73 -171 -150 -88 -77 -165 -144 -171 -150 -18 -17
-141 -125 -329 -291 -99 -87 -191 -169 -205 -181 l-24 -22 20 -23 c23 -26 73
-82 101 -114 58 -67 235 -268 347 -394 17 -19 65 -73 106 -120 41 -47 77 -87
80 -90 3 -3 34 -39 70 -80 35 -41 77 -88 92 -104 l27 -29 83 73 c46 41 92 83
104 94 12 12 34 32 50 45 27 23 125 107 203 176 19 17 41 37 50 45 9 9 47 43
85 75 38 33 79 69 91 80 12 11 47 43 79 70 32 28 70 61 85 75 14 14 62 56 106
94 44 38 112 97 150 131 165 146 365 323 435 384 41 36 77 68 80 71 3 3 39 35
80 70 41 36 77 68 80 71 3 3 48 43 100 88 83 73 201 177 234 206 6 6 49 44 96
85 47 41 87 77 90 80 7 7 230 202 263 231 16 13 41 35 56 49 15 14 60 54 101
90 41 36 92 81 114 101 l39 36 -194 190 c-107 105 -240 235 -296 290 -56 54
-245 238 -420 409 -175 171 -356 349 -403 394 -47 45 -233 227 -414 404 -180
176 -372 364 -426 416 -53 52 -226 221 -384 375 -158 154 -290 281 -294 282
-4 1 -73 -66 -154 -150z"/>
</g>
</svg>
